# xmcd CD database file
#
# Track frame offsets:
#	150
#	14736
#	29575
#	45156
#	62928
#	79211
#	95178
#	113583
#	124196
#	138937
#	155776
#	175942
#	195610
#
# Disc length: 2827 seconds
#
# Revision: 2
# Processed by: cddbd v1.4b41PL1 Copyright (c) Steve Scherf et al.
# Submitted via: Feurio! 1.52 - http://www.feurio.com
#
DISCID=b60b090d
DTITLE=Rednex - Sex and Violins
DYEAR=1900
DGENRE=
TTITLE0=Cotton Eye Joe
TTITLE1=Hittin' The Hay
TTITLE2=Riding Alone
TTITLE3=Wish You Were Here
TTITLE4=Mary Lou
TTITLE5=Old Pop In An Oak
TTITLE6=Nowhere In Idaho
TTITLE7=The Sad But True Story of Ray Mingus.....
TTITLE8=Fat Sally Lee
TTITLE9=Shooter
TTITLE10=Mckenzie Brothers
TTITLE11=Rolling Home
TTITLE12=Wild and Free
EXTD=
EXTT0=
EXTT1=
EXTT2=
EXTT3=
EXTT4=
EXTT5=
EXTT6=
EXTT7=
EXTT8=
EXTT9=
EXTT10=
EXTT11=
EXTT12=
PLAYORDER=
